PathFileType	4	(X/Y/Z)	70_2_103_p1_0-196_filt_butterworth.trc
DataRate	CameraRate	NumFrames	NumMarkers	Units	OrigDataRate	OrigDataStartFrame	OrigNumFrames
60.0	60.0	5	27	m	60.0	98	196
Frame#	Time	RHip			RKnee			RAnkle			RBigToe			RSmallToe			RHeel			LHip			LKnee			LAnkle			LBigToe			LSmallToe			LHeel			Neck			Head			Nose			RShoulder			RElbow			RWrist			RThumb			RIndex			RPinky			LShoulder			LElbow			LWrist			LThumb			LIndex			LPinky			
		X1	Y1	Z1	X2	Y2	Z2	X3	Y3	Z3	X4	Y4	Z4	X5	Y5	Z5	X6	Y6	Z6	X7	Y7	Z7	X8	Y8	Z8	X9	Y9	Z9	X10	Y10	Z10	X11	Y11	Z11	X12	Y12	Z12	X13	Y13	Z13	X14	Y14	Z14	X15	Y15	Z15	X16	Y16	Z16	X17	Y17	Z17	X18	Y18	Z18	X19	Y19	Z19	X20	Y20	Z20	X21	Y21	Z21	X22	Y22	Z22	X23	Y23	Z23	X24	Y24	Z24	X25	Y25	Z25	X26	Y26	Z26	X27	Y27	Z27	
98	1.6333333333333333	0.3392673023181678	0.6406573219757182	0.7501408037015486	0.33875857896308054	0.21884207414127516	0.7569791575307458	0.36704551960485376	-0.2420713163606329	0.7388548464771303	0.32453694028194013	-0.25262825783925047	0.5853721077370034	0.38716968627927756	-0.23724768390344889	0.5805653298101425	0.3680114026872131	-0.32689724309887785	0.816883800449811	0.10594527774028423	0.6440011071726169	0.8137184079576512	0.13668365413939276	0.14761720996219285	0.8276235497256622	0.1752265138167555	-0.2755240282453164	0.7760643165907052	0.16876790966454086	-0.22446597470782112	0.5848917039435898	0.1124067602528496	-0.25628799424863946	0.6577226183952223	0.19923298995552238	-0.31093335903337865	0.7923295768980533	0.2468630726381339	1.185150427929214	0.9393064732567291	0.22976308618613375	1.4464980387157733	0.9835816295232386	0.20517185297744014	1.3141727611629292	0.8734224462770934	0.41661739950537824	1.0904383191190803	0.8762196589758964	0.46187979712882726	0.8277370655155567	0.7958486881289351	0.4380403742109484	0.6120364623907799	0.6811533723131744	0.3695673523045172	0.5239384400494839	0.6203705390595651	0.3755347873974063	0.5243240237461886	0.5950220720701308	0.44776120818088944	0.4913345557174723	0.6562012517581812	0.09591008048064231	1.0994759680858344	1.0039391793308539	0.006386692871533976	0.9086803732413857	0.8021597055171028	0.09929208434623633	1.0991796369009863	0.781233215253817	0.16935706509029264	1.179443106068764	0.8191923142645314	0.15205341958001972	1.2264985864583935	0.7645770688759999	0.1530395280938265	1.1954229334705357	0.713511870146947	
99	1.65	0.3396208038306593	0.6413527084032333	0.7509914666141835	0.3383151099345706	0.2195190338064766	0.7560854156934882	0.3667914745408714	-0.24180598607385703	0.738237336134694	0.32454416438045375	-0.25253510485228503	0.5853763235492105	0.38716263920547184	-0.23731972562153714	0.5805903994020827	0.3683962083866101	-0.32699133551835324	0.8167617101496393	0.10630618649568437	0.6447205280454578	0.8150549829424503	0.13672295053682446	0.14846987168442588	0.8269557624254685	0.17517376536796608	-0.2755177660127632	0.7758962178548543	0.16993298767910145	-0.2254628963245654	0.585171162792885	0.11270597413729938	-0.25599641943900814	0.6574323477480729	0.1987245382802916	-0.31100245004800664	0.7922937787588933	0.24610580332191834	1.18460112010196	0.9369332076797854	0.22968473605196893	1.44593440430996	0.9832032549193686	0.20372714886466747	1.313927768336713	0.8710237959856543	0.4163403555109973	1.0916275138997413	0.872631402679015	0.4642063279744527	0.8272912572179735	0.7989622633483439	0.43835238196017046	0.61296787510569	0.6822716729392497	0.37041073014834824	0.5247162384240589	0.6192608861858684	0.3761692067183229	0.5261434242029774	0.594093823054591	0.4477712601267375	0.4914063389929836	0.656167081654318	0.09592255332182635	1.099130785020342	1.0037658727834151	0.006268304415805033	0.9122407990961174	0.7978681149839489	0.09953361512836607	1.1015427437015226	0.7817601398603489	0.16997865201385615	1.1813684535633373	0.8194879546570994	0.15445166128956067	1.2279592314509367	0.768576173849727	0.15370539760705293	1.1967550602397379	0.7116584973520412	
100	1.6666666666666667	0.33995294768593265	0.6422728521942684	0.7513757113586821	0.33791918674629523	0.22011219108666516	0.755155822527923	0.3664678791198701	-0.24146199810463892	0.7374421529339371	0.32454214695859784	-0.2524864290665637	0.5854302623261874	0.3871495282273224	-0.23738484277007915	0.5807152785409156	0.3688235891739135	-0.327371485409961	0.817117287171472	0.10663018050966058	0.6454949868955394	0.8162794659860093	0.13684334747286472	0.14933638862638648	0.826364386278449	0.17516730103102876	-0.2754949955567583	0.7755343258396655	0.1702744080501558	-0.22580808357495094	0.5846528254559731	0.11262916731591621	-0.2551527802333216	0.6565045583187568	0.1982065211703565	-0.3115397156293431	0.7925118422306395	0.24553946892044473	1.18367980428893	0.9349205540366856	0.22934186420496383	1.4455335512445144	0.982120514246838	0.20236369557375466	1.3135404605087637	0.8674175372607642	0.41588510296953385	1.0927738221299974	0.8694465211256797	0.4660992365159411	0.8269896422707852	0.8015569443880071	0.4390380291128875	0.6133015630969225	0.6838843609663678	0.37090702536466336	0.5248069553809038	0.6189905654055406	0.3770896448647859	0.5274503502927256	0.594434753646476	0.4478005332253153	0.49141564576250907	0.6561779490891874	0.09596293560285873	1.098526390709368	1.0036169971774291	0.0061225877354107155	0.9159896318289729	0.7936452256295391	0.10000068571078766	1.104491119881646	0.7823118275040071	0.17072659278713073	1.183739123327916	0.8198381788329604	0.15731369752938032	1.2292581443912238	0.7738355557740684	0.1546482903392588	1.1985411803971404	0.709746467089482	
101	1.6833333333333331	0.34028102663291765	0.6434513519032669	0.7512136498257473	0.3375761740156696	0.22061402963675047	0.7542182665146284	0.36608711377431985	-0.2410556255028489	0.7365030912003353	0.3245178395301964	-0.25259124055700133	0.5856252739893829	0.38711275531583045	-0.23756920371024898	0.5809934676637406	0.36923806724632635	-0.3280449320170857	0.8179248373752311	0.10690193958128644	0.6462995319795466	0.8173340277138259	0.1370108643242153	0.15031113469699164	0.8257387774951608	0.17517834400801838	-0.2756211080623164	0.7751418569594197	0.16985235815695798	-0.22539614428377056	0.5835502580213954	0.11222622320446263	-0.2537506095551481	0.654931443219233	0.19764249722752755	-0.3125969739902162	0.7929704393723553	0.24524253616088243	1.1824516460661316	0.9335131397511258	0.22877132748570372	1.4452837440879187	0.980433428523577	0.2012454167338325	1.3131176174764507	0.8629425366554286	0.4155337296277085	1.093790058984022	0.8668887853881323	0.4674458273005984	0.826618865373939	0.8035401927581448	0.43998412577615326	0.6130209755208066	0.6857779116664517	0.37106801649437077	0.5246237303863833	0.6193318805996647	0.37833930584402453	0.5281337660891061	0.5959910929524286	0.44801188630997957	0.4911820674623545	0.656514936641619	0.09602122446674136	1.0976350773796846	1.0035583727237745	0.005961244991050614	0.919645470767233	0.7900400694546599	0.10059686875159671	1.1077709054957445	0.782709325814418	0.17148678701876868	1.186227369868875	0.8201044924773213	0.16022808424776014	1.2305562354921202	0.7792458643339405	0.15578994245597685	1.2006791980044917	0.7080118124697071	
102	1.7	0.34062340869465374	0.6448372524471464	0.7505021603033322	0.3372959662056072	0.22102074211414496	0.7533027953196502	0.365651643665772	-0.24058657966657943	0.7354335490255288	0.3244681183060366	-0.25287606988171074	0.5859721235123483	0.3870772502459085	-0.2377362994028633	0.5812132734682893	0.3696314205018598	-0.3289511482262088	0.818967455503507	0.10712115407799021	0.6470971029072846	0.8182115263862499	0.13721045253402306	0.1514042917067862	0.824944752494839	0.1751757852065804	-0.2760089904658306	0.7748683420917247	0.1689902315621446	-0.22429650928613162	0.5820088041856458	0.11165525415150958	-0.2519515514953294	0.652903104868423	0.19703740663691752	-0.31414688173334426	0.7936818517294638	0.24521447691615256	1.1810076588753768	0.9327733453295428	0.22806754078657004	1.44513441180483	0.9783928638112784	0.20033085139750267	1.312685551273141	0.8581288636649282	0.41552120964142125	1.094565749574035	0.864985290364241	0.4682636226519886	0.8259765696995203	0.8049304166540723	0.44102036806711864	0.6122621777432651	0.6877230494065505	0.37105703381804944	0.5245917523018935	0.6198793431746619	0.37986395651254684	0.5281773096589203	0.5982618486158751	0.44852724427681534	0.49058412854297295	0.6573802059572231	0.09608351173562649	1.096456648557186	1.0036179508278056	0.0057997534323418615	0.9230436002709278	0.7874434568010698	0.10116125259379052	1.1110161862422967	0.7830801096642899	0.1722108664130706	1.1885658616980774	0.8204169590419064	0.16286437502513543	1.23196789964814	0.7838638692747708	0.15703835155826693	1.2030043655730527	0.7067086582271374	
